<?xml version="1.0" encoding="UTF-8" standalone="no"?>
<!-- Created with Inkscape (http://www.inkscape.org/) -->

<svg
   xmlns:dc="http://purl.org/dc/elements/1.1/"
   xmlns:cc="http://creativecommons.org/ns#"
   xmlns:rdf="http://www.w3.org/1999/02/22-rdf-syntax-ns#"
   xmlns:svg="http://www.w3.org/2000/svg"
   xmlns="http://www.w3.org/2000/svg"
   xmlns:sodipodi="http://sodipodi.sourceforge.net/DTD/sodipodi-0.dtd"
   xmlns:inkscape="http://www.inkscape.org/namespaces/inkscape"
   width="210mm"
   height="297mm"
   viewBox="0 0 210 297"
   version="1.1"
   id="svg8"
   inkscape:version="0.92.5 (2060ec1f9f, 2020-04-08)"
   sodipodi:docname="LogoOnly782121.svg">
  <defs
     id="defs2" />
  <sodipodi:namedview
     id="base"
     pagecolor="#ffffff"
     bordercolor="#666666"
     borderopacity="1.0"
     inkscape:pageopacity="0.0"
     inkscape:pageshadow="2"
     inkscape:zoom="1.4"
     inkscape:cx="268.40991"
     inkscape:cy="615.62023"
     inkscape:document-units="mm"
     inkscape:current-layer="layer1"
     showgrid="false"
     inkscape:window-width="3200"
     inkscape:window-height="1659"
     inkscape:window-x="-14"
     inkscape:window-y="-14"
     inkscape:window-maximized="1" />
  <metadata
     id="metadata5">
    <rdf:RDF>
      <cc:Work
         rdf:about="">
        <dc:format>image/svg+xml</dc:format>
        <dc:type
           rdf:resource="http://purl.org/dc/dcmitype/StillImage" />
        <dc:title></dc:title>
      </cc:Work>
    </rdf:RDF>
  </metadata>
  <g
     inkscape:label="Layer 1"
     inkscape:groupmode="layer"
     id="layer1">
    <path
       style="fill:#ea8724;stroke-width:0.26458335;stroke:#ea8724;stroke-opacity:1;fill-opacity:1"
       d="m 104.06618,236.64875 c -0.3638,-0.12649 -0.53808,-0.24185 -0.38728,-0.25635 0.1508,-0.0145 2.77834,-0.26283 5.83898,-0.55183 5.63811,-0.53238 9.62292,-1.12594 14.14681,-2.10726 2.9028,-0.62967 10.36188,-2.68467 10.22855,-2.818 -0.05,-0.05 -1.75114,0.32757 -3.78033,0.83904 -4.08656,1.03002 -9.24146,2.00933 -13.8759,2.63609 -3.59542,0.48625 -15.74852,0.78582 -19.182272,0.47284 -1.838698,-0.1676 -0.723497,-0.22008 4.894772,-0.23037 7.80489,-0.0143 12.02851,-0.37626 18.78542,-1.60998 29.47172,-5.38111 54.76314,-23.28149 69.85551,-49.44128 2.98993,-5.18247 7.33252,-14.85479 7.02693,-15.65116 -0.081,-0.21099 -0.0406,-0.31775 0.0896,-0.23725 0.30111,0.1861 2.501,-6.58232 2.50545,-7.70857 0.002,-0.46354 0.10335,-0.78098 0.2256,-0.70543 0.12225,0.0755 0.1406,-0.18802 0.0408,-0.58572 -0.10223,-0.40733 -0.078,-0.65912 0.0556,-0.5766 0.13036,0.0806 0.24754,-0.16956 0.2604,-0.55585 0.0129,-0.38629 0.45225,-2.78593 0.97642,-5.33255 1.35291,-6.57295 1.73766,-9.96848 2.08361,-18.38854 0.26583,-6.47007 0.24886,-7.97799 -0.13404,-11.90625 -0.59832,-6.13834 -1.00347,-8.66591 -1.2511,-7.80521 -0.10467,0.3638 -0.20036,0.84005 -0.21264,1.05833 -0.0198,0.35278 0.008,0.35278 0.25365,0 0.19959,-0.28703 0.23535,0.006 0.12923,1.05834 -0.0964,0.95607 -0.0661,1.2737 0.0884,0.92604 0.16215,-0.36486 0.22459,0.0459 0.2011,1.32292 -0.0187,1.01864 0.0469,3.45942 0.14585,5.42396 0.16433,3.2624 0.15822,3.34264 -0.0705,0.92604 -0.38246,-4.04029 -0.77121,-6.17167 -0.55499,-3.04271 0.37335,5.4026 0.1884,17.66653 -0.33019,21.89427 -0.27221,2.21919 -0.59762,4.0349 -0.72312,4.0349 -0.12551,0 -0.2282,0.28755 -0.2282,0.63901 0,0.91751 -1.48587,7.41387 -2.54682,11.13494 -1.09883,3.8539 -2.68213,8.3274 -4.24232,11.98635 -0.63929,1.49926 -1.08127,2.85711 -0.98218,3.01744 0.0991,0.16034 0.0659,0.22092 -0.0737,0.13463 -0.13962,-0.0863 -0.81207,0.96688 -1.49436,2.34037 -0.68227,1.37349 -1.18304,2.49726 -1.1128,2.49726 0.0702,0 0.65873,-1.0418 1.30778,-2.31511 0.64905,-1.2733 1.18612,-2.22397 1.19348,-2.11259 0.007,0.11137 -0.71167,1.64892 -1.59786,3.41675 -1.0237,2.04216 -1.68565,3.09389 -1.81526,2.88417 -0.15313,-0.24777 -0.24543,-0.22216 -0.37009,0.10271 -0.0971,0.25295 -0.0574,0.36563 0.0955,0.27115 0.47369,-0.29276 0.27658,0.18822 -0.96598,2.35713 -4.06325,7.09246 -10.07117,14.66093 -16.93033,21.32795 -7.23814,7.03539 -16.07219,13.18563 -25.11266,17.48337 -3.0876,1.46782 -6.40294,2.89088 -6.7152,2.88241 -0.0841,-0.002 1.38484,-0.78754 3.26422,-1.74502 3.20034,-1.63047 8.09233,-4.49747 8.09233,-4.74261 0,-0.12918 -0.97742,0.22925 -2.18461,0.80113 -1.14521,0.54251 -0.65154,0.20962 3.13627,-2.11484 10.85119,-6.65902 20.66797,-15.51839 25.99668,-23.46128 0.74914,-1.11667 1.36208,-2.11979 1.36208,-2.22916 0,-0.10937 -1.63711,1.40588 -3.63802,3.36724 -3.3573,3.29093 -6.76754,6.31618 -7.11997,6.31618 -0.081,0 0.84796,-1.08607 2.06426,-2.41349 6.43648,-7.02456 10.55119,-12.74481 14.98137,-20.82701 1.22772,-2.23979 2.79762,-5.34127 3.48865,-6.89217 2.54736,-5.71707 5.87463,-16.69293 6.59287,-21.74827 0.15329,-1.07897 0.40318,-2.73568 0.55531,-3.68156 0.93569,-5.81801 1.078,-7.93194 0.9885,-14.68438 -0.0502,-3.78354 -0.009,-6.46244 0.0912,-5.95312 0.43445,2.20567 0.22337,-0.7388 -0.40998,-5.71918 -0.76478,-6.0139 -1.58984,-10.21988 -3.04447,-15.5201 -1.11571,-4.06531 -3.61884,-11.606262 -3.9265,-11.829022 -0.104,-0.0753 -1.22196,-2.2205 -2.48436,-4.76712 -1.26241,-2.54661 -3.35093,-6.310778 -4.64117,-8.36481 -3.51115,-5.589662 -10.97563,-15.447688 -11.69698,-15.447688 -0.1069,0 -1.46102,-1.242333 -3.00915,-2.760737 C 163.88819,57.069724 157.9343,52.438278 152.07445,48.767901 142.259,42.619895 130.9703,38.341283 118.22141,35.937014 110.90132,34.556544 96.849098,34.11607 91.763118,35.107663 c -1.164164,0.226972 -3.545399,0.66287 -5.29164,0.968663 -19.262435,3.373129 -36.929745,12.56295 -50.961975,26.508368 -1.3988,1.390142 -2.66517,2.572682 -2.81416,2.627866 -0.149,0.05518 -1.01029,0.993304 -1.914,2.08471 -0.9037,1.091406 -1.90086,2.282031 -2.2159,2.645833 -2.36175,2.727254 -7.7176,10.612999 -9.16612,13.495855 -0.62093,1.23577 -1.71095,3.27987 -2.42226,4.54245 -4.33699,7.69812 -8.5242891,21.685202 -9.8474382,32.893992 -0.22332,1.89177 -0.5386797,6.05896 -0.7008097,9.26041 -0.1621297,3.20146 -0.3453497,5.9399 -0.4071597,6.08542 -0.3101197,0.73011 0.1575,-14.08614 0.5302597,-16.80104 1.2621994,-9.19287 3.6051879,-18.24314 6.8797179,-26.574282 0.51124,-1.3007 0.89181,-2.40261 0.84571,-2.44871 -0.10512,-0.10512 -1.97279,4.29165 -3.18432,7.49638 -1.1835397,3.130702 -2.8959788,9.107202 -3.8557482,13.456822 -1.2110894,5.48854 -1.8062091,9.83828 -2.5109288,18.35265 -0.2091497,2.52687 -0.4383497,4.6524 -0.5093397,4.72339 -0.6327094,0.6327 -0.4695497,-9.95968 0.23318,-15.13854 0.9421894,-6.9436 2.5117685,-13.63708 4.7632573,-20.312932 0.7912294,-2.34606 1.3948194,-4.30936 1.3412994,-4.36287 -0.095,-0.095 -1.7126891,3.90654 -2.9696285,7.345592 -0.4018597,1.09948 -0.5784797,1.39274 -0.4896797,0.81304 0.21531,-1.40568 -0.11196,-0.80309 -0.9498594,1.7489 -0.4212697,1.28307 -0.6949597,1.91613 -0.6081997,1.40681 0.2905997,-1.70605 3.1863082,-10.148702 4.7014173,-13.707332 2.77188,-6.51049 5.96391,-12.477708 9.51,-17.778088 15.50112,-23.169706 39.01796,-38.913239 65.399784,-43.782404 6.842241,-1.262846 10.59724,-1.579512 18.653033,-1.573046 7.94752,0.0064 12.15782,0.388103 18.78542,1.703169 25.50709,5.061187 47.86302,19.078259 63.54907,39.845001 11.5205,15.251978 17.30031,30.30297 19.69997,51.29999 0.68191,5.96674 0.62139,17.57543 -0.12291,23.57443 -2.28296,18.4006 -8.18647,34.09983 -18.05877,48.02378 -16.40643,23.13971 -41.10844,38.28641 -69.43298,42.57471 -3.99139,0.60429 -12.98564,0.94874 -14.15521,0.5421 z m 51.06458,-14.98572 c 0,-0.0728 -0.23812,-0.005 -0.52916,0.15091 -0.29105,0.15576 -0.52917,0.34273 -0.52917,0.4155 0,0.0728 0.23812,0.005 0.52917,-0.15092 0.29104,-0.15576 0.52916,-0.34273 0.52916,-0.41549 z m 4.92597,-2.92008 c 13.43004,-8.65966 26.37186,-23.20303 33.93803,-38.13786 1.03842,-2.04974 0.36385,-1.16432 -0.9071,1.19062 -2.75495,5.10465 -7.66182,12.22408 -11.98994,17.39636 -1.09594,1.30968 -3.90426,4.28625 -6.24072,6.61458 -5.21869,5.20053 -10.24558,9.30305 -17.0804,13.93956 -3.85526,2.61527 -2.20702,1.89005 2.28013,-1.00326 z m 35.00487,-40.32068 c 0.29704,-0.62369 0.29153,-0.63213 -0.0965,-0.14786 -0.22631,0.28247 -0.41147,0.62974 -0.41147,0.7717 0,0.33616 0.12221,0.18606 0.50792,-0.62384 z m 8.89653,-24.50658 c 0.35734,-1.76488 0.63591,-3.43203 0.61903,-3.70478 -0.0359,-0.58 0.049,-0.90513 -0.94172,3.60511 -0.36761,1.67349 -1.08553,4.47146 -1.59538,6.21771 -1.32815,4.54892 -1.30634,4.75794 0.0691,0.66208 0.65959,-1.96419 1.49163,-5.01525 1.84898,-6.78012 z m -2.08547,-34.56165 c -0.0734,-0.1819 -0.13345,-0.0331 -0.13345,0.33073 0,0.3638 0.0601,0.51263 0.13345,0.33073 0.0734,-0.1819 0.0734,-0.47956 0,-0.66146 z m 0.27009,-1.30638 c -0.0845,-0.21106 -0.14715,-0.14837 -0.15985,0.15986 -0.0115,0.27891 0.0511,0.43518 0.13897,0.34726 0.0879,-0.0879 0.0973,-0.31612 0.0209,-0.50712 z m -0.53467,-0.81028 c -0.0734,-0.18191 -0.13346,-0.0331 -0.13346,0.33072 0,0.36381 0.0601,0.51264 0.13346,0.33073 0.0734,-0.1819 0.0734,-0.47955 0,-0.66145 z m -0.26459,-1.85209 c -0.0734,-0.1819 -0.13345,-0.0331 -0.13345,0.33073 0,0.3638 0.0601,0.51263 0.13345,0.33073 0.0734,-0.1819 0.0734,-0.47956 0,-0.66146 z m -0.25646,-1.45017 c -0.0671,-0.25743 -0.12638,-0.11087 -0.13177,0.32569 -0.005,0.43657 0.0495,0.64719 0.12197,0.46806 0.0725,-0.17913 0.0769,-0.53632 0.01,-0.79375 z m -0.2727,-1.46024 c -0.0734,-0.18191 -0.13346,-0.0331 -0.13346,0.33072 0,0.36381 0.0601,0.51263 0.13346,0.33073 0.0734,-0.1819 0.0734,-0.47955 0,-0.66145 z m 1.59562,-0.12726 c -0.0671,-0.25743 -0.12638,-0.11087 -0.13177,0.32569 -0.005,0.43657 0.0495,0.64719 0.12197,0.46806 0.0725,-0.17913 0.0769,-0.53632 0.01,-0.79375 z m -2.68708,-5.02798 c -2.48085,-10.165472 -6.25729,-19.553512 -11.23806,-27.937293 -1.91926,-3.230552 -4.94405,-7.758973 -5.35043,-8.010128 -0.13399,-0.08281 0.65413,1.156737 1.75139,2.754545 1.09724,1.597806 1.99499,2.987765 1.99499,3.088796 0,0.101031 0.90361,1.784525 2.00801,3.741095 5.14524,9.115343 9.31103,19.889975 11.1442,28.824015 0.26061,1.27009 0.51197,2.11496 0.55858,1.87749 0.0466,-0.23748 -0.34429,-2.18981 -0.86868,-4.33852 z m 2.41437,3.56774 c -0.0734,-0.18191 -0.13345,-0.0331 -0.13345,0.33072 0,0.36381 0.06,0.51263 0.13345,0.33073 0.0734,-0.1819 0.0734,-0.47955 0,-0.66145 z m -0.26458,-1.32292 c -0.0734,-0.1819 -0.13345,-0.0331 -0.13345,0.33073 0,0.3638 0.0601,0.51263 0.13345,0.33073 0.0734,-0.1819 0.0734,-0.47956 0,-0.66146 z m -0.25907,-1.0418 c -0.0845,-0.21106 -0.14716,-0.14837 -0.15985,0.15986 -0.0115,0.27891 0.051,0.43518 0.13896,0.34726 0.0879,-0.0879 0.0973,-0.31612 0.0209,-0.50712 z m -0.26459,-1.05833 c -0.0845,-0.21107 -0.14715,-0.14837 -0.15985,0.15985 -0.0115,0.27892 0.0511,0.43519 0.13897,0.34727 0.0879,-0.0879 0.0973,-0.31613 0.0209,-0.50712 z m -0.26458,-1.05833 c -0.0845,-0.21107 -0.14716,-0.14838 -0.15985,0.15985 -0.0115,0.27891 0.0511,0.43518 0.13896,0.34726 0.0879,-0.0879 0.0973,-0.31612 0.0209,-0.50711 z M 11.189433,93.358728 c 0,-0.14552 -0.11542,-0.086 -0.25648,0.13229 -0.14106,0.21828 -0.25648,0.51594 -0.25648,0.66146 0,0.14552 0.11542,0.086 0.25648,-0.13229 0.14106,-0.21828 0.25648,-0.51594 0.25648,-0.66146 z M 182.11826,69.943103 c -0.46101,-0.582083 -0.89774,-1.058333 -0.9705,-1.058333 -0.0728,0 0.2449,0.47625 0.70592,1.058333 0.46102,0.582084 0.89775,1.058334 0.97051,1.058334 0.0728,0 -0.24491,-0.47625 -0.70593,-1.058334 z m -8.18124,-9.486064 c -0.90442,-1.689915 -9.90238,-9.377402 -15.10209,-12.902605 -8.8985,-6.032833 -19.62506,-11.224473 -28.44271,-13.766228 -3.58299,-1.032827 -11.75897,-2.74522 -12.96458,-2.71533 -0.43657,0.01082 0.75055,0.312194 2.63803,0.669713 17.2593,3.269186 32.21839,10.321554 45.91301,21.64541 1.67349,1.383782 4.17145,3.650708 5.55102,5.037617 1.37958,1.386909 2.54463,2.521654 2.589,2.521654 0.0444,0 -0.0374,-0.220604 -0.18168,-0.490231 z M 92.626072,234.32681 c 0.32912,-0.0633 0.805367,-0.0609 1.058334,0.005 0.25296,0.0662 -0.0163,0.118 -0.598394,0.11506 -0.582087,-0.003 -0.789057,-0.0571 -0.45994,-0.1204 z m 7.339071,-1.00264 c 0.145517,-0.0493 3.241137,-0.13461 6.879157,-0.18954 3.63802,-0.0549 5.78115,-0.02 4.7625,0.0777 -1.87051,0.17934 -12.131727,0.27793 -11.641657,0.11186 z m 14.089057,-0.58445 c 0.32742,-0.0631 0.8632,-0.0631 1.19062,0 0.32743,0.0631 0.0595,0.11466 -0.59531,0.11466 -0.65484,0 -0.92273,-0.0516 -0.59531,-0.11466 z m -36.843117,-0.73459 c -2.78898,-0.73973 -6.86047,-2.1461 -7.80521,-2.69606 -0.43139,-0.25113 -0.47741,-0.32476 -0.13229,-0.21168 0.29104,0.0954 1.89838,0.63408 3.57187,1.19715 1.67349,0.56307 4.11427,1.31734 5.42396,1.67615 1.309694,0.35882 2.143131,0.65546 1.852081,0.65921 -0.291037,0.004 -1.600721,-0.2774 -2.910411,-0.62477 z m 39.092077,0.47434 c 0.25466,-0.0665 0.67138,-0.0665 0.92604,0 0.25466,0.0666 0.0463,0.12101 -0.46302,0.12101 -0.50932,0 -0.71768,-0.0545 -0.46302,-0.12101 z m 2.1217,-0.26555 c 0.25743,-0.0671 0.61462,-0.0627 0.79375,0.01 0.17913,0.0725 -0.0315,0.12736 -0.46806,0.12197 -0.43656,-0.005 -0.58312,-0.0647 -0.32569,-0.13178 z m 1.71476,-0.25646 c 0.1819,-0.0734 0.47955,-0.0734 0.66145,0 0.18191,0.0734 0.0331,0.13346 -0.33072,0.13346 -0.36381,0 -0.51263,-0.0601 -0.33073,-0.13346 z m 1.60403,-0.27009 c 0.191,-0.0764 0.4192,-0.067 0.50712,0.0209 0.0879,0.0879 -0.0684,0.15046 -0.34726,0.13897 -0.30823,-0.0127 -0.37092,-0.0754 -0.15986,-0.15985 z m -53.925277,-2.99426 c -0.21828,-0.14107 -0.27781,-0.25648 -0.13229,-0.25648 0.14552,0 0.44317,0.11541 0.66146,0.25648 0.21828,0.14106 0.27781,0.25648 0.13229,0.25648 -0.14552,0 -0.44318,-0.11542 -0.66146,-0.25648 z m 9.73997,-0.44532 c 0.191,-0.0764 0.4192,-0.067 0.50712,0.0209 0.0879,0.0879 -0.0683,0.15045 -0.34726,0.13897 -0.30823,-0.0127 -0.37092,-0.0754 -0.15986,-0.15986 z m -5.90351,-1.77677 c -4.73961,-1.67309 -6.46966,-2.39779 -10.31875,-4.32246 -3.13937,-1.56979 -8.2516,-4.48454 -8.46167,-4.82445 -0.071,-0.1149 1.2085,0.56023 2.84336,1.50028 5.68646,3.26976 11.14378,5.74762 17.39227,7.89686 1.81901,0.62566 3.12869,1.14053 2.91041,1.14415 -0.21828,0.004 -2.18281,-0.62385 -4.36562,-1.39438 z m 65.219677,-5.29023 c 0,-0.0572 0.18478,-0.17489 0.41062,-0.26155 0.23546,-0.0904 0.34166,-0.046 0.24897,0.10398 -0.15538,0.25141 -0.65959,0.37186 -0.65959,0.15757 z m -85.872757,-1.10124 c -0.49319,-0.39512 -0.48994,-0.40001 0.0817,-0.12298 0.32742,0.15867 0.59531,0.34383 0.59531,0.41147 0,0.20247 -0.13721,0.144 -0.67703,-0.28849 z m -3.83987,-2.40234 c -6.01973,-4.02161 -9.54773,-6.95467 -15.199,-12.63595 -6.20204,-6.23497 -10.64883,-11.89239 -14.99579,-19.07836 -2.05646,-3.39956 -4.52946,-8.07517 -4.36045,-8.24418 0.0791,-0.0791 0.52197,0.61244 0.98425,1.53668 1.26707,2.53322 6.11422,10.18708 8.68869,13.7198 6.53745,8.97076 16.07937,18.29334 25.03358,24.45814 2.74942,1.89292 3.24278,2.26393 3.01049,2.26393 -0.0759,0 -1.49872,-0.90902 -3.16177,-2.02006 z m 4.63362,-1.03724 c -0.49319,-0.39513 -0.48994,-0.40001 0.0817,-0.12298 0.32742,0.15867 0.59531,0.34383 0.59531,0.41147 0,0.20246 -0.13721,0.14399 -0.67703,-0.28849 z m -1.43963,-0.93509 c -0.56985,-0.46611 -0.58105,-0.50174 -0.0809,-0.25727 0.31932,0.15607 0.65376,0.40218 0.74322,0.54692 0.2388,0.3864 0.0784,0.31626 -0.66234,-0.28965 z M 163.20055,205.64601 c 0.72761,-0.63278 2.0373,-1.80972 2.91042,-2.61543 2.6627,-2.4571 3.04417,-2.59816 0.65441,-0.24199 -1.24081,1.22337 -2.84815,2.62562 -3.57188,3.11611 l -1.31586,0.89181 z M 96.393281,189.53056 c -7.456068,-0.77452 -15.249443,-2.8903 -20.105878,-5.45843 -12.18562,-6.44388 -22.49468,-18.75936 -26.68235,-31.87546 -4.72125,-14.78734 -2.25038,-31.97953 6.4979,-45.2119 2.58821,-3.91484 4.64604,-6.38598 7.95662,-9.554712 6.40944,-6.13481 12.22112,-9.23362 20.956694,-11.17421 6.045154,-1.34292 13.750622,-1.83541 19.406783,-1.24037 4.5442,0.47806 15.64965,4.98642 19.50566,7.9185 2.61285,1.98679 7.30086,6.73493 9.30129,9.420582 3.25183,4.36573 5.64594,9.28715 6.93913,14.26436 1.00863,3.88201 1.28275,6.66688 1.13421,11.52292 -0.11397,3.72609 -0.25147,4.82856 -0.92676,7.43072 -0.92761,3.57445 -2.44693,7.33728 -4.35162,10.77744 -1.13801,2.05541 -1.86787,2.94929 -4.47615,5.4821 -7.4863,7.2697 -13.60014,10.41261 -21.99046,11.30453 -5.52888,0.58774 -9.774177,-0.46166 -17.517272,-4.33011 -7.317021,-3.65559 -11.263797,-8.40105 -13.284645,-15.97296 -0.62177,-2.32973 -0.70827,-3.16187 -0.72857,-7.0092 -0.0218,-4.13611 0.016,-4.47691 0.71986,-6.4823 1.109144,-3.16022 2.629885,-5.54487 5.06192,-7.9375 4.174526,-4.10689 8.840049,-6.0468 14.567999,-6.05733 3.063598,-0.006 4.814458,0.36097 7.433908,1.55654 2.32095,1.05933 3.83853,2.40052 4.72178,4.17298 1.98989,3.99319 -0.3551,10.37449 -6.65443,18.10838 l -1.14843,1.40996 0.734,0.28605 c 1.26387,0.49255 3.48106,0.68881 5.03273,0.44549 2.63676,-0.41349 5.34336,-2.07659 8.1593,-5.01358 1.28137,-1.33645 1.77629,-2.11148 2.42405,-3.79599 0.86938,-2.26082 1.65438,-5.6243 1.65438,-7.08846 0,-3.03411 -1.35045,-6.08387 -4.85188,-10.95713 -3.09755,-4.31116 -4.6346,-5.40598 -10.55821,-7.5205 -6.654461,-2.37542 -13.319282,-1.74614 -20.70545,1.95495 -7.046437,3.53086 -11.333037,8.20417 -14.133917,15.40906 -0.89799,2.30996 -1.06539,3.09568 -1.31867,6.18945 -0.89115,10.88556 0.57302,18.83459 4.57925,24.86081 1.40826,2.11833 5.904344,6.54066 8.932156,8.78566 3.855989,2.85906 8.390842,5.05216 12.833738,6.20653 2.394075,0.62204 2.910052,0.65651 9.826313,0.65651 7.08066,0 7.36629,-0.0204 9.5243,-0.67858 5.35883,-1.63455 14.00211,-5.88232 17.17653,-8.44148 7.33671,-5.9147 13.06265,-15.98933 14.14,-24.8789 0.51681,-4.2644 0.43737,-14.52609 -0.14337,-18.52083 -1.16074,-7.98434 -5.50546,-16.31374 -11.80545,-22.632582 -6.37764,-6.39671 -12.91642,-10.3475 -21.86057,-13.208339 -5.16458,-1.651918 -7.32402,-1.969026 -13.462891,-1.976987 -6.644944,-0.0086 -10.76759,0.643644 -16.786897,2.655919 -2.795479,0.934537 -9.501259,4.274167 -12.184869,6.068357 -8.69968,5.81633 -15.686,13.801942 -20.70773,23.669672 -0.85165,1.67349 -1.4685,2.74505 -1.37078,2.38125 0.42461,-1.58072 2.11792,-5.84875 3.04418,-7.67292 2.32405,-4.57697 3.15366,-5.64986 9.16442,-11.851952 8.8964,-9.17955 12.70912,-12.32596 18.20428,-15.022877 14.088822,-6.914547 30.578777,-7.166441 46.963437,-0.717397 4.44975,1.751436 10.11139,4.654954 12.41132,6.365044 2.67808,1.99124 7.1891,6.56166 9.15222,9.27272 4.46692,6.168792 7.24136,13.048612 8.18193,20.288842 0.22854,1.75918 0.43638,6.57344 0.52543,12.17083 0.16433,10.3278 0.11179,10.84822 -1.55425,15.39531 -3.22759,8.80897 -5.87175,13.13755 -12.33993,20.20088 -2.34478,2.56053 -3.05723,3.12576 -8.73723,6.93172 -3.40136,2.27912 -6.72007,4.37943 -7.37491,4.66736 -2.07664,0.91307 -6.28164,1.82902 -13.09688,2.85279 -7.17441,1.07774 -8.68783,1.12403 -11.90625,0.36415 -4.002549,-0.94502 -12.917288,-3.95934 -15.344253,-5.18832 -4.580786,-2.31964 -8.354554,-5.39271 -12.407904,-10.10406 -5.93303,-6.89616 -8.01412,-11.07977 -9.8671,-19.83576 -0.61203,-2.89209 -0.71634,-4.02462 -0.72535,-7.87574 -0.0158,-6.73536 1.03339,-11.08743 4.11757,-17.08066 3.73562,-7.25911 9.72557,-13.10005 16.923343,-16.50235 5.50883,-2.603972 12.866968,-3.712482 17.759894,-2.675562 2.39882,0.50837 10.97411,4.194922 13.28877,5.712902 3.24048,2.12513 6.72441,5.54786 8.88384,8.72776 3.8337,5.64536 4.69283,13.03773 2.28473,19.65881 -1.04832,2.88234 -4.6023,8.57003 -6.66177,10.6613 -1.70955,1.73595 -2.03251,1.94245 -4.01975,2.57021 -6.96179,2.19923 -13.9712,1.10237 -18.549596,-2.90272 -2.466478,-2.15763 -3.777349,-5.25844 -3.789289,-8.96344 -0.009,-2.65579 0.511607,-4.91251 2.023658,-8.7796 0.653647,-1.6717 1.188444,-3.1461 1.188444,-3.27645 0,-0.13034 -0.28708,-0.30904 -0.637947,-0.3971 -1.066324,-0.26764 -2.829365,0.71543 -4.110306,2.2919 -0.639067,0.7865 -1.889571,2.14438 -2.778895,3.0175 -1.132544,1.11192 -1.718001,1.92832 -1.954238,2.72517 -0.472657,1.59427 -1.204604,7.75641 -1.184814,9.97483 0.0405,4.54406 3.469519,9.95123 8.371722,13.20127 2.473535,1.6399 4.506216,2.52067 7.793611,3.37704 3.1737,0.82674 8.98219,0.8313 12.01585,0.009 4.55805,-1.23484 9.92052,-4.48002 13.85681,-8.38565 11.82507,-11.73299 10.81498,-32.51177 -2.24793,-46.24226 -2.97633,-3.128442 -6.09792,-5.432372 -9.9416,-7.337542 -5.5826,-2.76708 -10.19942,-3.5953 -18.653096,-3.3462 -7.347478,0.21651 -10.51948,0.92336 -15.604883,3.47742 -4.015478,2.01669 -10.698308,6.836522 -14.976328,10.801302 -3.30749,3.06532 -6.18365,7.9608 -7.64587,13.01393 -1.34449,4.64629 -2.78325,12.94215 -2.78325,16.04819 0,7.10807 2.75631,15.5727 7.8924,24.23757 2.77202,4.67656 5.58172,8.27469 9.55614,12.23771 3.10845,3.09954 3.93751,3.76827 6.2274,5.02313 8.210162,4.49921 16.836904,7.05492 24.746807,7.33135 4.38129,0.15311 6.32505,-0.0265 12.5636,-1.16097 14.94885,-2.71843 28.12495,-12.01767 36.03409,-25.43166 5.4316,-9.21206 8.1114,-20.43276 7.26364,-30.41396 -0.16995,-2.00091 -0.38474,-3.93568 -0.47732,-4.29948 -0.0926,-0.3638 -0.0923,-0.59313 5.3e-4,-0.50961 0.32524,0.29247 1.47123,5.95863 1.74015,8.60388 0.18187,1.78892 0.18502,3.44823 0.01,5.02709 -1.6617,14.95276 -7.56177,27.49289 -17.70996,37.64107 -8.66846,8.66846 -19.04868,13.86984 -31.49092,15.77965 -3.27047,0.502 -11.874697,0.72638 -15.081229,0.39329 z m 91.525879,-2.57547 c 0.99216,-1.56435 2.71222,-4.50951 3.82235,-6.5448 1.11013,-2.03529 2.01842,-3.58147 2.01842,-3.43595 0,0.77415 -7.06657,12.82502 -7.52053,12.82502 -0.0683,0 0.6876,-1.27992 1.67976,-2.84427 z m 6.12926,-11.04636 c 0,-0.14552 0.2869,-0.80036 0.63755,-1.45521 0.35065,-0.65484 0.63755,-1.07156 0.63755,-0.92604 0,0.14552 -0.2869,0.80037 -0.63755,1.45521 -0.35065,0.65484 -0.63755,1.07156 -0.63755,0.92604 z m 1.30712,-2.91042 c 0,-0.14552 0.11541,-0.44317 0.25647,-0.66145 0.14107,-0.21828 0.25648,-0.27782 0.25648,-0.1323 0,0.14553 -0.11541,0.44318 -0.25648,0.66146 -0.14106,0.21828 -0.25647,0.27782 -0.25647,0.13229 z m 0.52916,-1.32291 c 0,-0.14552 0.11542,-0.44318 0.25648,-0.66146 0.14107,-0.21828 0.25648,-0.27781 0.25648,-0.13229 0,0.14552 -0.11541,0.44318 -0.25648,0.66146 -0.14106,0.21828 -0.25648,0.27781 -0.25648,0.13229 z m 0.52917,-1.32292 c 0,-0.14552 0.11541,-0.44318 0.25648,-0.66146 0.14106,-0.21828 0.25648,-0.27781 0.25648,-0.13229 0,0.14552 -0.11542,0.44318 -0.25648,0.66146 -0.14107,0.21828 -0.25648,0.27781 -0.25648,0.13229 z m 0.52917,-1.32292 c 0,-0.14552 0.11541,-0.44317 0.25647,-0.66145 0.14107,-0.21828 0.25648,-0.27782 0.25648,-0.1323 0,0.14553 -0.11541,0.44318 -0.25648,0.66146 -0.14106,0.21828 -0.25647,0.27782 -0.25647,0.13229 z m 6.4429,-37.30625 c 5.3e-4,-1.74625 0.0433,-2.42619 0.0952,-1.51098 0.0518,0.91521 0.0514,2.34396 -0.001,3.175 -0.0523,0.83104 -0.0947,0.0822 -0.0942,-1.66402 z m -0.31401,-12.17083 c 0.005,-0.43656 0.0647,-0.58313 0.13177,-0.32569 0.0671,0.25743 0.0627,0.61461 -0.01,0.79375 -0.0725,0.17913 -0.12737,-0.0315 -0.12197,-0.46806 z M 4.868426,108.41793 c 0.0127,-0.30822 0.0754,-0.37092 0.15985,-0.15985 0.0764,0.19099 0.067,0.4192 -0.0209,0.50712 -0.0879,0.0879 -0.15046,-0.0684 -0.13897,-0.34727 z m 0.26459,-1.05833 c 0.0127,-0.30823 0.0754,-0.37092 0.1598497,-0.15985 0.0764,0.19099 0.067,0.4192 -0.0209,0.50711 -0.0879,0.0879 -0.1504497,-0.0684 -0.1389697,-0.34726 z"
       id="path4529"
       inkscape:connector-curvature="0"
       inkscape:export-filename="C:\Users\gary\Desktop\Logo\LogoOnly_540608_Burg.png"
       inkscape:export-xdpi="300"
       inkscape:export-ydpi="300" />
  </g>
</svg>
